# xmcd CD database file
#
# Track frame offsets:
#	150
#	19352
#	41962
#	55835
#	81485
#	224750
#	251530
#	270780
#	298972
#
# Disc length: 4129 seconds
#
# Revision: 9
# Processed by: cddbd v1.5.2PL0 Copyright (c) Steve Scherf et al.
# Submitted via: CDex 1.70beta3
#
DISCID=8e101f09
DTITLE=マウンテン - 異邦の薫り
DYEAR=1974
DGENRE=Rock
TTITLE0=ネヴァー・イン・マイ・ライフ
TTITLE1=想像されたウエスタンのテーマ
TTITLE2=ブラッド・オブ・ザ・サン
TTITLE3=ギター・ソロ
TTITLE4=ナンタケット・スレイライド
TTITLE5=クロスローダー
TTITLE6=ミシシッピー・クイーン
TTITLE7=銀色の紙
TTITLE8=ベートーベンをぶっ飛ばせ
EXTD=YEAR: 1974
EXTT0=
EXTT1=
EXTT2=
EXTT3=
EXTT4=
EXTT5=
EXTT6=
EXTT7=
EXTT8=
PLAYORDER=
